<svg width="20" height="20" viewBox="0 0 20 20" fill="none" xmlns="http://www.w3.org/2000/svg">
<g id="&#229;&#175;&#188;&#232;&#136;&#170;nav">
<path id="Subtract" d="M10 3C14.9624 3 18.9998 6.0762 19 9.85742C19 11.526 18.2238 13.1043 16.8018 14.3506L18.0732 17.0391C18.2032 17.3143 18.1205 17.6328 17.8682 17.8291C17.7232 17.942 17.5404 18 17.3564 18C17.2171 17.9999 17.0804 17.9666 16.9609 17.9033L13.6162 16.1387C12.4607 16.5237 11.2352 16.7187 10 16.7148C5.0375 16.7148 1 13.6387 1 9.85742C1.00016 6.0762 5.0376 3 10 3ZM6 9C5.44772 9 5 9.44772 5 10C5 10.5523 5.44772 11 6 11C6.55228 11 7 10.5523 7 10C7 9.44772 6.55228 9 6 9ZM10 9C9.44771 9 9 9.44772 9 10C9 10.5523 9.44771 11 10 11C10.5523 11 11 10.5523 11 10C11 9.44772 10.5523 9 10 9ZM14 9C13.4477 9 13 9.44772 13 10C13 10.5523 13.4477 11 14 11C14.5523 11 15 10.5523 15 10C15 9.44772 14.5523 9 14 9Z" fill="#002C5F"/>
</g>
</svg>
