<svg width="20" height="20" viewBox="0 0 20 20" fill="none" xmlns="http://www.w3.org/2000/svg">
<g id="&#229;&#175;&#188;&#232;&#136;&#170;nav">
<path id="Subtract" d="M5.7998 4L5.80273 4.09961C5.82668 4.61204 6.03293 5.09558 6.37988 5.44922C6.72689 5.80286 7.18808 6 7.66699 6H12.333L12.4268 5.99707C12.905 5.97139 13.3555 5.74969 13.6855 5.37793C14.0156 5.00615 14.2002 4.51307 14.2002 4V2.5H15.1338C15.6287 2.50013 16.1032 2.71098 16.4531 3.08594C16.8032 3.46101 17 3.96957 17 4.5V17C17 17.5304 16.8032 18.039 16.4531 18.4141C16.1032 18.789 15.6287 18.9999 15.1338 19H4.86621C4.3713 18.9999 3.89684 18.789 3.54688 18.4141C3.19681 18.039 3 17.5304 3 17V4.5C3 3.96957 3.19681 3.46101 3.54688 3.08594C3.89684 2.71098 4.3713 2.50013 4.86621 2.5H5.7998V4ZM6.5 14C6.22386 14 6 14.2239 6 14.5C6 14.7761 6.22386 15 6.5 15H13.5C13.7761 15 14 14.7761 14 14.5C14 14.2239 13.7761 14 13.5 14H6.5ZM6.5 11C6.22386 11 6 11.2239 6 11.5C6 11.7761 6.22386 12 6.5 12H13.5C13.7761 12 14 11.7761 14 11.5C14 11.2239 13.7761 11 13.5 11H6.5ZM10 1C10.4139 1.00006 10.8163 1.14744 11.1436 1.41895C11.4707 1.69042 11.704 2.0708 11.8076 2.5H13.2666V3.75C13.2666 4.08152 13.1436 4.39937 12.9248 4.63379C12.706 4.86819 12.409 5 12.0996 5H7.90039C7.59098 5 7.29399 4.86819 7.0752 4.63379C6.9669 4.51776 6.88089 4.3801 6.82227 4.22852C6.76364 4.07686 6.7334 3.91415 6.7334 3.75V2.5H8.19238C8.29599 2.0708 8.52934 1.69042 8.85645 1.41895C9.18367 1.14744 9.58613 1.00006 10 1Z" fill="#002C5F"/>
</g>
</svg>
