<svg width="20" height="20" viewBox="0 0 20 20" fill="none" xmlns="http://www.w3.org/2000/svg">
<g id="&#229;&#175;&#188;&#232;&#136;&#170;nav">
<g id="Frame">
<path id="Subtract" d="M15 1C16.1046 1 17 1.89543 17 3V15H6C5.44772 15 5 15.4477 5 16C5 16.5523 5.44772 17 6 17H17C17 18.1046 16.1046 19 15 19H5C3.89543 19 3 18.1046 3 17V3C3 1.89543 3.89543 1 5 1H10V6.47559C10 6.65925 10.2273 6.74632 10.3496 6.60938L12.3506 4.36719C12.4301 4.27813 12.5699 4.27813 12.6494 4.36719L14.6504 6.60938C14.7727 6.74632 15 6.65925 15 6.47559V1Z" fill="#002C5F"/>
</g>
</g>
</svg>
